<svg id="Layer_1" data-name="Layer 1" xmlns="http://www.w3.org/2000/svg" viewBox="0 0 193.91 193.91"><defs><style>.cls-1{fill:none;stroke:#141613;stroke-miterlimit:10;stroke-width:0.43px;}.cls-2{fill:#141613;fill-rule:evenodd;}</style></defs><path class="cls-1" d="M100,196.74h0A96.74,96.74,0,0,1,3.26,100h0A96.74,96.74,0,0,1,100,3.26h0A96.74,96.74,0,0,1,196.74,100h0A96.74,96.74,0,0,1,100,196.74Z" transform="translate(-3.05 -3.05)"/><path class="cls-2" d="M141.51,117.87c-2.3-1.13-13.45-6.6-15.54-7.33s-3.6-1.13-5.12,1.13-5.9,7.33-7.2,8.8-2.64,1.69-4.94.57-9.59-3.47-18.27-11.2A67.43,67.43,0,0,1,77.82,94.27c-1.3-2.26-.13-3.47,1-4.6s2.25-2.65,3.42-4c.31-.39.57-.74.83-1.08A26.31,26.31,0,0,0,84.5,82a4.08,4.08,0,0,0-.17-4c-.57-1.13-5.12-12.23-7-16.75s-3.78-3.73-5.12-3.73-2.82-.21-4.34-.21a8.39,8.39,0,0,0-6.07,2.81c-2.09,2.26-7.94,7.73-7.94,18.83A28.74,28.74,0,0,0,55,86.63a51.15,51.15,0,0,0,8.11,15.62c1.13,1.48,15.71,25,38.79,34.06s23.12,6,27.28,5.59,13.46-5.42,15.32-10.71,1.91-9.76,1.34-10.72S143.76,119,141.51,117.87Z" transform="translate(-3.05 -3.05)"/></svg>