<svg id="Layer_1" data-name="Layer 1" xmlns="http://www.w3.org/2000/svg" viewBox="0 0 1513.68 1664.28"><defs><style>.cls-1{fill:#556b2f;}</style></defs><path class="cls-1" d="M354.3,1119.3S760.55,1287,964.75,1667.42c0,0,273-719,792.09-1334.84,0,0-522.33,309.53-828.63,944.7C928.21,1277.28,615.46,1112.85,354.3,1119.3Z" transform="translate(-243.16 -167.86)"/><path class="cls-1" d="M1719.77,1089a735.6,735.6,0,0,0-8.66-105.55L1709,970.37l-2.44-13-1.23-6.52-1.39-6.46-2.8-13L1698,918.55l-1.56-6.45-1.75-6.37L1691.19,893l-3.84-12.67-1.92-6.34-2.08-6.27-4.19-12.56-4.53-12.45-2.27-6.22-2.43-6.15L1665.07,818l-5.2-12.16-2.61-6.1-2.75-6-5.54-12v0l-1.15.56-1,.46,5.42,12,2.7,6,2.56,6.07,5.06,12.17,4.77,12.3,2.37,6.16,2.22,6.21,4.41,12.43,4.08,12.54,2,6.26,1.87,6.33,3.72,12.63,3.39,12.75,1.7,6.37,1.51,6.41,3,12.82,2.68,12.91,1.34,6.45,1.17,6.48,2.33,13,2,13a730.83,730.83,0,0,1,7.82,105c.12,4.4-.07,8.78-.2,13.18l-.37,13.15-.39,13.17c0,2.18-.17,4.38-.38,6.56l-.52,6.56-2.1,26.25-3.38,26.11c-.63,4.34-1,8.72-1.82,13l-2.37,13-2.35,12.93-1.19,6.48c-.35,2.17-1,4.27-1.43,6.41l-6,25.62c-.92,4.31-2.2,8.5-3.41,12.71l-3.65,12.63-3.64,12.65c-1.3,4.18-2.81,8.29-4.21,12.45l-4.26,12.45-2.13,6.22c-.71,2.07-1.4,4.15-2.25,6.18l-9.73,24.43-2.44,6.11-2.72,6-5.48,12-5.46,12c-.85,2-1.88,3.95-2.9,5.91l-3,5.83c-4,7.77-8,15.61-12.13,23.32L1611.86,1465l-3.3,5.68c-1.12,1.88-2.37,3.69-3.54,5.53l-7.14,11-7.12,11c-1.15,1.86-2.42,3.65-3.72,5.42l-3.82,5.33c-5.12,7.1-10.16,14.27-15.37,21.32l-16.31,20.59-4.08,5.16c-1.37,1.67-2.87,3.29-4.28,5l-8.65,9.9-8.62,9.89c-1.42,1.68-3,3.26-4.46,4.83l-4.56,4.73c-6.09,6.3-12.06,12.69-18.24,18.89l-19.08,18-4.77,4.51-5,4.3-10,8.55-9.95,8.56c-1.62,1.45-3.37,2.77-5.1,4.11l-5.18,4.05c-6.91,5.34-13.73,10.84-20.76,16.06l-21.44,15.13-5.35,3.78-5.53,3.52-11.09,7-11.07,7c-3.67,2.36-7.56,4.38-11.33,6.59-7.62,4.29-15.14,8.74-22.84,12.91l-23.38,11.85-5.85,3c-2,.93-4,1.78-6,2.68l-12,5.37-12,5.34c-2,.93-4,1.75-6,2.52l-6.11,2.38c-8.15,3.15-16.27,6.39-24.45,9.49-16.6,5.46-33,11.42-50,15.76-16.73,5.09-33.87,8.53-50.88,12.46-8.58,1.66-17.2,3.06-25.81,4.59-4.3.72-8.59,1.56-12.91,2.18l-13,1.6c-34.6,4.84-69.61,6.19-104.49,5.93l-26.18-.77c-2.18,0-4.34-.18-6.52-.37l-6.52-.52-13-1.05-13.06-1-13-1.68-13-1.69-6.48-.86c-2.16-.28-4.34-.52-6.49-1l-25.73-4.69-6.43-1.18c-2.14-.37-4.24-1-6.39-1.43l-12.72-3c-17.07-3.62-33.71-8.91-50.48-13.64-8.27-2.74-16.5-5.63-24.76-8.42l-6.18-2.13c-2-.69-4.12-1.4-6.13-2.23l-12.15-4.85-12.13-4.84-6.08-2.42-5.94-2.72-23.77-10.87c-2-.85-3.92-1.88-5.85-2.89l-5.82-3-11.61-6c-3.83-2-7.77-3.94-11.55-6.08l-11.31-6.56-11.29-6.56-5.66-3.28c-1.85-1.11-3.65-2.34-5.5-3.52l-21.93-14.18c-1.86-1.13-3.63-2.4-5.38-3.68l-5.31-3.81-10.62-7.62c-3.53-2.55-7.12-5-10.57-7.65l-10.23-8.13-10.25-8.1-5.1-4c-1.68-1.39-3.3-2.85-4.94-4.28l-19.67-17.16a726.73,726.73,0,0,1-132.29-160.57c-2.67-4.46-5.24-9-7.81-13.49-1.71-3-3.45-6.1-5.2-9.11-2.1-3.8-4.39-7.51-6.35-11.39l-5.91-11.62-5.88-11.61-3-5.82-2.66-5.94L322,1377.35c-.93-2-1.71-4-2.5-6l-2.36-6.07-4.74-12.15c-1.54-4-3.2-8.07-4.67-12.15l-4.14-12.35-4.12-12.36c-1.38-4.12-2.83-8.21-3.91-12.42l-7-25.08c-1.26-4.18-2.14-8.43-3.11-12.65l-2.88-12.71-2.87-12.69c-.9-4.25-1.55-8.55-2.31-12.82-1.48-8.55-3.08-17.09-4.42-25.66l-3.19-25.84c-7.54-69-5.55-139.13,6.82-207.36a720.74,720.74,0,0,1,65.61-196.51A721.05,721.05,0,0,1,593.83,492.58c8.74-2.14,18.77-3.95,31-5.89,13.79-2.18,26.68-5.23,39.31-6.67l1-.18c67.74-7.7,120.53,5.29,149.87,15.74,15.69,5.68,24.58,10.47,25.53,11.05-.91-.13-8.61-1.29-21.32-2.57-30.89-3.06-91.09-6.67-152.28,3.32-12,1.91-24,4.37-35.9,7.47-46.17,12-89.83,33.39-118.46,70.5.89-.65,15.54-11.2,39-16.62,27.44-6.18,67.11-5.31,110.84,27.28a135.62,135.62,0,0,0,14.16,9.22c48.42,27.24,123.53,32.29,197.07,6.91C934.3,591.2,993.83,549.78,1036.51,483c-1.78.54-99.29,31-201.28-53.22-98.84-81.66-211.34-5.18-244.68,18-2.64,1.84-5.21,3.91-7.62,5.94-3.52,2.94-6.74,5.74-9.91,8.55C623.27,355.88,585.88,282,536.39,234.84c-48.93-46.48-109.56-67-109.56-67,45.13,46.47,29.93,99.42,15.95,141.47-4.41,13.29-8.7,25.36-10.93,36-9.41,44.09,53.64,139.21,100.52,80.31,45.85-57.87-6.69-131.34-8.76-134.3,2.72,2.59,92.08,31.88,26.51,197.93a746.5,746.5,0,0,0-230,272.19A744.79,744.79,0,0,0,253.8,965c-12.24,70.54-13.73,142.79-5.42,213.78l3.48,26.59c1.43,8.81,3.15,17.59,4.73,26.38.84,4.38,1.53,8.8,2.48,13.18l3.06,13,3.07,13c1,4.36,2,8.72,3.3,13l7.41,25.77c1.14,4.3,2.67,8.51,4.1,12.74l4.34,12.67,4.35,12.67c1.54,4.19,3.27,8.31,4.9,12.46l5,12.45,2.48,6.22c.8,2.09,1.64,4.16,2.61,6.17l11.12,24.37,2.79,6.08,3.08,6,6.15,11.89,6.15,11.88c2.05,4,4.41,7.75,6.61,11.65,4.51,7.69,8.87,15.48,13.53,23.1a805.52,805.52,0,0,0,62.55,86.75q12.06,14.34,24.89,28.06l1.14,1.29c2.88,3.37,6.05,6.48,9.16,9.63l1.4,1.42c1.32,1.36,2.65,2.72,4,4.06l3.93,4,9.31,9.49,9.79,9.05,9.78,9c3.26,3,6.44,6.11,9.89,8.89l20.42,17.1c3.34,2.95,6.93,5.55,10.47,8.26l10.59,8,10.62,8,11,7.55c29,20.57,59.9,38.34,91.69,54.29,8,3.86,15.93,7.89,24,11.59l24.55,10.49,6.15,2.59c2,.9,4.16,1.59,6.22,2.37l12.54,4.6,1.83.67a.25.25,0,0,0,.11,0c1.25.52,2.52,1,3.8,1.42,6.43,2.4,12.86,4.82,19.45,6.72l12.38,3.86,2.21.73c.3.07.58.16.88.24l10,3.13c7,2,14.16,3.72,21.26,5.57,2.15.56,4.31,1.12,6.45,1.66l11.07,2.81,13.1,2.68,1.24.25.64.14c2.18.47,4.32,1,6.52,1.42l3.17.56c4.86,1,9.72,2,14.62,2.85,4.42.65,8.82,1.34,13.21,2l.43.08,1.44.24c1.49.3,3,.48,4.5.67l.23,0c11,1.67,22,3.22,33.14,4.1l1.72.16.11,0h.08l13.22,1,13.31,1,6.65.49c2.2.16,4.41.33,6.65.33l26.66.58c35.53,0,71.14-1.64,106.32-6.82l13.21-1.73c4.4-.67,8.74-1.57,13.12-2.33,8.73-1.62,17.49-3.11,26.19-4.86,17.29-4.14,34.7-7.77,51.65-13.07,17.2-4.54,33.86-10.73,50.68-16.41,8.27-3.21,16.51-6.54,24.76-9.82l6.19-2.46c2.07-.8,4.12-1.64,6.11-2.61l12.13-5.51,12.09-5.54c2-.93,4.06-1.82,6.06-2.79l5.9-3.06,23.67-12.22c7.77-4.29,15.37-8.85,23.06-13.27,3.8-2.27,7.73-4.36,11.46-6.78l11.16-7.21,11.18-7.23,5.59-3.61,5.4-3.88,21.64-15.5c7.06-5.35,13.93-11,20.9-16.43l5.22-4.12c1.73-1.38,3.5-2.74,5.14-4.23l10-8.74,10-8.74,5-4.39,4.81-4.61,19.17-18.41c6.21-6.33,12.23-12.85,18.34-19.26l4.56-4.83c1.53-1.6,3.06-3.2,4.47-4.92l8.67-10.08,8.66-10.08c1.44-1.67,2.91-3.33,4.31-5l4.09-5.23,16.35-21c5.21-7.16,10.24-14.46,15.37-21.67l3.82-5.44c1.3-1.79,2.57-3.62,3.72-5.5l7.12-11.21,7.14-11.22c1.17-1.86,2.4-3.71,3.52-5.61l3.3-5.78,13.15-23.08c4.14-7.83,8-15.76,12.07-23.65l3-5.92c1-2,2-3.93,2.89-6l5.42-12.11,5.42-12.11,2.71-6.08,2.42-6.18,9.63-24.73c.86-2,1.53-4.15,2.24-6.26l2.1-6.3,4.19-12.57c1.38-4.21,2.87-8.39,4.16-12.62l3.58-12.78,3.57-12.76c1.18-4.27,2.46-8.52,3.36-12.84l5.87-25.88c.44-2.16,1-4.3,1.39-6.48l1.14-6.54,2.29-13.06,2.28-13.06c.76-4.36,1.13-8.78,1.73-13.16l3.2-26.33,1.92-26.45.49-6.62c.16-2.2.31-4.4.31-6.61l.3-13.25.28-13.25C1719.77,1097.85,1719.92,1093.41,1719.77,1089Z" transform="translate(-243.16 -167.86)"/></svg>