<svg id="Layer_1" enable-background="new 0 0 64 64" viewBox="0 0 64 64" xmlns="http://www.w3.org/2000/svg"><g><path d="m21.1414795 42.4279175c-.4037476-.8168335-.8340454-1.6221924-1.3201904-2.4000854 0 0 0 0 0-.0004883l-.2888794-.4622192c1.8077602-.9613686 1.9491901-3.8439636.2371216-4.9750977 0 0 1.1474609-4.8761597 1.1474609-4.8761597.4759159-1.7792492-.9405975-3.7543545-2.7998505-3.7138386.0000458-.0000286-10.2343292-.0000286-10.2343292-.0000286-.8642578 0-1.6748047.3974609-2.2236328 1.0908203-.5849609.737793-.7949219 1.6938477-.5761719 2.6230469l1.1474609 4.8761597c-1.7125049 1.131382-1.5702152 4.0140839.2373047 4.9752197-2.9060378 4.4779358-4.4734941 9.6915207-4.4677629 15.0314369-.0000105 4.0820274 3.3212786 7.4033165 7.4033098 7.4033165h7.1933594c4.0820312 0 7.4033203-3.3212891 7.4033203-7.4033203 0-4.1919556-.97052-8.2989502-2.7962646-12.0411377-.0163575-.0457153-.0397339-.0852661-.0622559-.1276245zm-14.1414795-5.4279175c0-.5512695.4482422-1 1-1h10c.5517578 0 1 .4487305 1 1s-.4482422 1-1 1h-10c-.5517578 0-1-.4487305-1-1zm.2265625-8.6674805c.0986328-.1240234.3144531-.3325195.65625-.3325195h10.234375c.7166786.0617409.9607735.6668396.8525829 1.2558346-.0000438.0000248-1.1162548 4.7441654-1.1162548 4.7441654h-9.7070312l-1.1162109-4.7441406c-.0781251-.3305664-.0058594-.6674805.196289-.9233399zm9.3701172 31.6674805h-7.1933594c-2.9794922 0-5.4033203-2.4238281-5.4033203-5.4033203-.0251625-5.2209702 1.6448379-10.2799225 4.5546875-14.5966797h8.890625c2.9099102 4.3169556 4.5798092 9.3760376 4.5546417 14.5966988.0000458 2.9794731-2.4237823 5.4033012-5.4032745 5.4033012z"/><path d="m60 2h-4.4042969c-3.0859375 0-5.5957031 2.5102539-5.5957031 5.5957031.016819.2598023-.0617905 4.8253069.0745239 4.9157104l-1.1224365 1.1224365c-12.477066-11.8414726-33.8947105-7.0805612-40.118988 8.9914513-.2071228.5114174.0399475 1.0944252.5516663 1.3014565.5126953.2089844 1.0947266-.0395508 1.3017578-.5517578 5.7181243-14.7561626 25.3525962-19.1596179 36.8343505-8.3099365l-4.236145 4.236145c-7.3352051-6.803606-19.8676014-5.2487431-25.3413334 3.1360302-.7290936 1.081049.9090824 2.2049866 1.6523438 1.1256943 4.8057022-7.3604393 15.7916012-8.7648087 22.274683-2.8474178l-4.2594604 4.2594604c-5.7291412-4.7068405-14.6781883-.4528122-14.6108913 7.0251656-.0000707 4.9622611 4.0370387 8.9998588 8.9999293 8.9998588 7.4783783.0661049 11.7321167-8.8820305 7.0250244-14.6109619l4.2593994-4.2593994c8.4781303 9.5050106 1.4647942 24.9644051-11.2846489 24.8702545-1.9607124.0001068-3.8513374-.3680573-5.6198921-1.0946198-.5078125-.2104492-1.0957031.0336914-1.3046875.5449219-.2099609.5107422.0341797 1.0952148.5449219 1.3046875 2.0107422.8261719 4.1572266 1.2451172 6.3798828 1.2451172 14.5109787.1070633 22.4365501-17.5456486 12.6987305-28.284668l4.236084-4.236084c13.5115852 14.5602264 2.9181519 38.578167-16.9350891 38.5206299-1.6178895.0001221-3.2292176-.1707763-4.7887879-.5072021-.5380859-.1132812-1.0712891.2265625-1.1884766.7666016-.1162109.5400391.2265625 1.0717773.7666016 1.1884766 1.6982422.3662108 3.4511719.552246 5.2109375.552246 21.629528.0661507 33.1053696-26.1468067 18.3660278-41.9519653l1.1226196-1.1226196c.0703278.1267014 4.6697388.0612888 4.9156685.0745783 3.0859185.0000066 5.5956841-2.5102473 5.5956841-5.5956965v-4.4042969c0-1.1030273-.8974609-2-2-2zm-21 30c-.3521309 9.273468-13.6491699 9.2712631-14.0000095-.0000896-.082386-5.6843662 6.7338276-9.0669861 11.1842747-5.598238l-4.8912964 4.8912964c-.390625.390625-.390625 1.0234375 0 1.4140625s1.0234375.390625 1.4140625 0l4.8912964-4.8912964c.8759765 1.1688842 1.4016723 2.614563 1.4016723 4.1842651zm21-23.5957031c0 1.9829101-1.6132812 3.5957031-3.5957031 3.5957031h-2.9902344l4.2929688-4.2929688c.390625-.390625.390625-1.0234375 0-1.4140625s-1.0234375-.390625-1.4140625 0l-4.2929688 4.2929688v-2.9902344c0-1.9829101 1.6132812-3.5957031 3.5957031-3.5957031h4.4042969z"/><path d="m2.6015625 9.9169922 3.8203125 1.6611328 1.6611328 3.8208008c.1591797.3647461.5185547.6010742.9169922.6010742s.7578125-.2363281.9169922-.6010742l1.6611328-3.8208008 3.8203125-1.6611328c.3652344-.1586914.6015625-.519043.6015625-.9169922s-.2363281-.7583008-.6015625-.9169922l-3.8203125-1.6611328-1.6611328-3.8208008c-.1591797-.3647461-.5185547-.6010742-.9169922-.6010742s-.7578125.2363281-.9169922.6010742l-1.6611328 3.8208008-3.8203125 1.6611328c-.7889745.3121309-.7891496 1.5218763 0 1.8339844zm4.9785156-1.8183594c.2324219-.1010742.4179688-.2861328.5185547-.5180664l.9013672-2.0727539.9013672 2.0727539c.1005859.2319336.2861328.4169922.5185547.5180664l2.0722656.9013672-2.0722656.9013672c-.2324219.1010742-.4179688.2861328-.5185547.5180664l-.9013672 2.0727539-.9013672-2.0727539c-.1005859-.2319336-.2861328-.4169922-.5185547-.5180664l-2.0722656-.9013672z"/><path d="m61.3984375 54.0830078-3.8203125-1.6611328-1.6611328-3.8208008c-.1591797-.3647461-.5185547-.6010742-.9169922-.6010742s-.7578125.2363281-.9169922.6010742l-1.6611328 3.8208008-3.8203125 1.6611328c-.3652344.1586914-.6015625.519043-.6015625.9169922s.2363281.7583008.6015625.9169922l3.8203125 1.6611328 1.6611328 3.8208008c.1591797.3647461.5185547.6010742.9169922.6010742s.7578125-.2363281.9169922-.6010742l1.6611328-3.8208008 3.8203125-1.6611328c.7889748-.31213.7891502-1.5218773 0-1.8339844zm-4.9785156 1.8183594c-.2324219.1010742-.4179688.2861328-.5185547.5180664l-.9013672 2.0727539-.9013672-2.0727539c-.1005859-.2319336-.2861328-.4169922-.5185547-.5180664l-2.0722656-.9013672 2.0722656-.9013672c.2324219-.1010742.4179688-.2861328.5185547-.5180664l.9013672-2.0727539.9013672 2.0727539c.1005859.2319336.2861328.4169922.5185547.5180664l2.0722656.9013672z"/><path d="m13 46c-2.7568359 0-5 2.2431641-5 5 .2349968 6.6174812 9.7659988 6.6157837 10.0000057-.0000839-.0000057-2.756752-2.2431698-4.9999161-5.0000057-4.9999161zm0 8c-3.9558764-.1036911-3.9550848-5.8968887.0000906-6 3.9557848.1036911 3.9549952 5.8968887-.0000906 6z"/></g></svg>