<svg id="Capa_1" enable-background="new 0 0 512 512" height="512" viewBox="0 0 512 512" width="512" xmlns="http://www.w3.org/2000/svg"><g><path d="m491.96 378.841c-9.003-4.688-19.267-5.51-28.9-2.318l-92.676 30.725c-3.166-8.408-9.309-15.491-17.426-19.785l-101.806-53.879c-7.199-3.815-15.312-5.833-23.462-5.833h-85.87v-4.55c0-10.752-8.748-19.5-19.5-19.5h-102.82c-10.752 0-19.5 8.748-19.5 19.5v93.71c0 4.143 3.357 7.5 7.5 7.5s7.5-3.357 7.5-7.5v-93.71c0-2.481 2.019-4.5 4.5-4.5h102.82c2.481 0 4.5 2.019 4.5 4.5v139.21c0 2.481-2.019 4.5-4.5 4.5h-102.82c-2.481 0-4.5-2.019-4.5-4.5v-10.5c0-4.143-3.357-7.5-7.5-7.5s-7.5 3.357-7.5 7.5v10.5c0 10.752 8.748 19.5 19.5 19.5h102.82c10.752 0 19.5-8.748 19.5-19.5v-4.56h17.819c4.668 0 9.334 1.15 13.489 3.322l82.812 43.401c8.98 4.704 18.965 7.094 28.974 7.094 6.704 0 13.42-1.072 19.852-3.24l181.901-61.301c15.152-5.111 25.333-19.28 25.333-35.257 0-3.6-.529-7.196-1.574-10.688-2.907-9.72-9.465-17.655-18.466-22.341zm-10.086 54.073-181.899 61.3c-12.174 4.104-25.685 3.038-37.073-2.925l-82.815-43.404c-6.298-3.293-13.367-5.033-20.446-5.033h-17.821v-100.101h85.87c5.71 0 11.394 1.413 16.441 4.089l101.812 53.882c6.46 3.417 10.825 9.796 11.678 17.063 0 .003.001.006.001.01v.005c.53 4.444-.3 8.901-2.399 12.894l-.074.134c-.023.043-.047.086-.07.129-2.772 5.246-7.424 9.097-13.097 10.844-5.675 1.747-11.687 1.18-16.934-1.598l-80.32-42.52c-3.661-1.938-8.2-.54-10.138 3.12-1.938 3.661-.541 8.199 3.12 10.138l80.32 42.52c8.79 4.652 18.861 5.604 28.366 2.676 9.479-2.919 17.257-9.346 21.907-18.102l.076-.139c.022-.04.045-.082.067-.123 2.569-4.85 4.017-10.118 4.286-15.501l95.045-31.511c5.751-1.906 11.876-1.413 17.253 1.384 5.373 2.798 9.287 7.534 11.022 13.336.627 2.097.945 4.247.945 6.391.003 9.533-6.076 17.99-15.123 21.042z"/><path d="m343.41 337.501c92.961 0 168.59-75.624 168.59-168.579 0-17.751-2.747-35.243-8.164-51.989-1.274-3.939-5.504-6.101-9.444-4.827s-6.103 5.503-4.827 9.444c4.934 15.252 7.436 31.19 7.436 47.372 0 38.157-13.993 73.105-37.112 99.993l-.32-.427c-1.988-2.647-2.83-6.046-2.308-9.345.219-1.405.329-2.833.329-4.242 0-10.214-5.618-19.5-14.656-24.232l-19.67-10.315c9.589-14.834 15.162-32.496 15.162-51.436 0-11.984-2.236-23.455-6.304-34.023 6.332-9.383 6.32-22.137-.575-31.54l-13.641-18.592c-3.025-4.121-3.216-9.575-.483-13.898l16.393-25.972c16.763 12.185 31.161 27.763 41.976 46.082 2.104 3.567 6.706 4.754 10.271 2.646 3.567-2.105 4.752-6.704 2.646-10.271-14.652-24.818-35.551-45.612-60.437-60.135-25.652-14.971-54.997-22.884-84.862-22.884-92.955 0-168.58 75.63-168.58 168.591 0 92.955 75.625 168.579 168.58 168.579zm-72.471-33.207 8.65-6.735c6.152-4.792 13.819-7.023 21.567-6.281l41.319 3.95c5.352.513 10.486 2.44 14.848 5.574l23.701 17.033c-12.041 3.042-24.641 4.666-37.614 4.666-26.192 0-50.87-6.597-72.471-18.207zm79.971-55.725s.002-53.289.002-53.302v-12.429c0-.026-.002-6.131-.002-6.131h4.931c19.203 0 34.825-15.622 34.825-34.825v-10.217c0-5.355-4.356-9.712-9.712-9.712h-10.217c-18.369 0-33.45 14.297-34.727 32.346-5.65-3.956-12.517-6.287-19.923-6.287h-10.216c-5.355 0-9.712 4.356-9.712 9.712v10.217c0 19.203 15.622 34.825 34.825 34.825h4.926v45.802c-40.613-3.796-72.511-38.061-72.511-79.651 0-44.119 35.894-80.013 80.013-80.013 44.12 0 80.014 35.894 80.014 80.013 0 41.592-31.9 75.858-72.516 79.652zm-15-60.802h-4.926c-10.932 0-19.825-8.894-19.825-19.825v-4.929h4.928c10.919 0 19.802 8.873 19.823 19.787zm15.002-26.06v-4.929c0-10.932 8.894-19.825 19.825-19.825h4.929v4.929c0 10.932-8.894 19.825-19.825 19.825zm70.357-125.04-16.529 26.187c-6.049 9.572-5.627 21.655 1.073 30.783l11.195 15.258c-17.438-21.341-43.951-34.99-73.596-34.99-30.394 0-57.498 14.347-74.902 36.623l-1.915-5.515c-.506-1.455-.148-3.054.921-4.162l19.529-20.159c3.716-3.835 5.662-9.092 5.339-14.423s-2.889-10.312-7.029-13.661l-7.094-5.755c-1.324-1.076-1.521-2.448-1.521-3.171 0-.718.188-1.779 1.08-2.755 3.343-3.65 5.057-8.365 4.998-13.126 18.6-8.018 39.085-12.469 60.592-12.469 27.734-.001 54.569 7.629 77.859 21.335zm-158.796 1.782c-.482 1.688-.733 3.446-.733 5.233 0 5.765 2.573 11.163 7.064 14.814l7.109 5.768c1.209.978 1.458 2.244 1.498 2.912.041.669-.053 1.957-1.139 3.077l-19.54 20.171c-5.026 5.207-6.678 12.682-4.309 19.508l5.848 16.846c-3.647 7.339-6.375 15.212-8.027 23.469l-3.817-1.769c-.694-.322-1.282-.83-1.701-1.471l-35.023-53.579c12.719-22.438 30.919-41.373 52.77-54.979zm-60.485 70.587 30.184 46.178c1.953 2.989 4.698 5.365 7.944 6.872l8.334 3.862c-.031.987-.051 1.976-.051 2.97 0 52.39 42.621 95.012 95.01 95.014h.001.001c27.991 0 53.191-12.17 70.595-31.493l21.964 11.518c4.082 2.137 6.618 6.331 6.618 10.945 0 .641-.051 1.292-.147 1.916-1.151 7.264.719 14.801 5.126 20.671l1.848 2.467c-14.468 13.817-31.625 24.837-50.593 32.199l-32.748-23.534c-6.514-4.681-14.181-7.56-22.172-8.324l-41.321-3.95c-11.589-1.113-23.025 2.224-32.21 9.378l-13.157 10.245c-40.641-27.66-67.386-74.288-67.386-127.047.002-21.235 4.335-41.475 12.16-59.887z"/></g></svg>