<?xml version="1.0" encoding="UTF-8"?>
<svg xmlns="http://www.w3.org/2000/svg" id="Icons" viewBox="0 0 60 60" width="512" height="512"><path d="M57,27h-.169A27.166,27.166,0,0,0,33,3.169V3A2.92,2.92,0,0,0,32.127.893,2.937,2.937,0,0,0,30,0a3,3,0,0,0-3,3v.169A27.166,27.166,0,0,0,3.169,27H3a2.92,2.92,0,0,0-2.107.873A2.937,2.937,0,0,0,0,30a3,3,0,0,0,3,3h.169A27.166,27.166,0,0,0,27,56.831V57a3.015,3.015,0,0,0,3,3,3,3,0,0,0,3-3v-.169A27.166,27.166,0,0,0,56.831,33H57a3.015,3.015,0,0,0,3-3A3,3,0,0,0,57,27Zm.693,3.713A.959.959,0,0,1,57,31H55.92a1,1,0,0,0-1,.924,25.131,25.131,0,0,1-23,23,1,1,0,0,0-.924,1V57a1,1,0,0,1-1,1,.977.977,0,0,1-.713-.307A.959.959,0,0,1,29,57V55.92a1,1,0,0,0-.924-1,25.131,25.131,0,0,1-23-23,1,1,0,0,0-1-.924H3a1,1,0,0,1-1-1,.977.977,0,0,1,.307-.713A.959.959,0,0,1,3,29H4.08a1,1,0,0,0,1-.924,25.131,25.131,0,0,1,23-23,1,1,0,0,0,.924-1V3a1,1,0,0,1,1-1,.977.977,0,0,1,.713.307A.959.959,0,0,1,31,3V4.08a1,1,0,0,0,.924,1,25.131,25.131,0,0,1,23,23,1,1,0,0,0,1,.924H57a1,1,0,0,1,1,1A.977.977,0,0,1,57.693,30.713Z"/><path d="M51,29h.91a1,1,0,0,0,1-1.091A22.991,22.991,0,0,0,32.091,7.094,1,1,0,0,0,31,8.09V9a1,1,0,0,1-2,0V8.09a1,1,0,0,0-.326-.738.982.982,0,0,0-.765-.258A22.991,22.991,0,0,0,7.094,27.909,1,1,0,0,0,8.09,29H9a1,1,0,0,1,0,2H8.09a1,1,0,0,0-1,1.091A22.991,22.991,0,0,0,27.909,52.906a.984.984,0,0,0,.765-.258A1,1,0,0,0,29,51.91V51a1,1,0,0,1,2,0v.91a1,1,0,0,0,1,1c.03,0,.061,0,.091,0A22.991,22.991,0,0,0,52.906,32.091a1,1,0,0,0-1-1.091H51a1,1,0,0,1,0-2Zm-.213,3.992a20.993,20.993,0,0,1-17.8,17.8,3,3,0,0,0-5.984,0,20.993,20.993,0,0,1-17.8-17.8,3,3,0,0,0,0-5.984,20.993,20.993,0,0,1,17.8-17.8,3,3,0,0,0,5.984,0,20.993,20.993,0,0,1,17.8,17.8,3,3,0,0,0,0,5.984Z"/><path d="M45.316,19.032a1.483,1.483,0,0,0-1.507.587,7.337,7.337,0,0,1-3.238,2.536,10.327,10.327,0,0,1-3.986.712A10.2,10.2,0,0,0,31.428,24.1a8.318,8.318,0,0,0-2.894,2.583,7.44,7.44,0,0,0-1.528-1.1,9.112,9.112,0,0,0-4.64-1.12,9.115,9.115,0,0,1-3.5-.628,6.576,6.576,0,0,1-2.818-2.215,1.408,1.408,0,0,0-1.431-.594,1.44,1.44,0,0,0-1.135,1.11c-.748,3.545-1.672,12.275,5.871,16.767A7.946,7.946,0,0,0,23.38,40a7.78,7.78,0,0,0,1.953-.247,7.431,7.431,0,0,0,3.885-2.463,8.436,8.436,0,0,0,6.231,2.723,8.759,8.759,0,0,0,4.462-1.225h0c8.686-5.13,7.206-15.542,6.547-18.6A1.481,1.481,0,0,0,45.316,19.032ZM24.832,37.813a5.918,5.918,0,0,1-4.462-.632c-5.726-3.41-5.688-9.874-5.148-13.448a8.475,8.475,0,0,0,2.893,1.955,11.067,11.067,0,0,0,4.19.772,7.243,7.243,0,0,1,3.749.88,5.408,5.408,0,0,1,1.491,1.226c-.084.228-.164.457-.231.694a8.506,8.506,0,0,0,.17,5.146A13,13,0,0,1,19.27,28.6a1,1,0,0,0-1.655,1.125c1.241,1.822,3.477,5.093,9.664,6.7A5.485,5.485,0,0,1,24.832,37.813ZM38.9,37.062h0a6.6,6.6,0,0,1-8.1-.994c7.094-1.766,9.624-5.457,11.024-7.5a1,1,0,0,0-1.65-1.128c-1.382,2.017-3.676,5.344-10.583,6.853a6.522,6.522,0,0,1-.351-4.492,6.371,6.371,0,0,1,3.135-3.938,8.312,8.312,0,0,1,4.269-.993,12.292,12.292,0,0,0,4.671-.855,9.322,9.322,0,0,0,3.392-2.335C45.364,25.644,45.554,33.13,38.9,37.062Z"/></svg>
